<svg xmlns="http://www.w3.org/2000/svg" viewBox="0 0 850.39 359.08">
  <defs>
    <radialGradient id="d" cx="382.82" cy="46.72" r="293.78" fx="382.82" fy="46.72" gradientUnits="userSpaceOnUse">
      <stop offset=".39" stop-color="#f8ab21"/>
      <stop offset=".46" stop-color="#f7a523"/>
      <stop offset=".56" stop-color="#f5952b"/>
      <stop offset=".67" stop-color="#f27a38"/>
      <stop offset=".79" stop-color="#ee564a"/>
      <stop offset=".91" stop-color="#e92761"/>
      <stop offset="1" stop-color="#e50075"/>
    </radialGradient>
    <style>
      .e{fill:url(#d)}.f{fill:#f8ab21}.g{fill:#fff}.h{fill:#e50075}
    </style>
  </defs>
  <g id="b">
    <g id="c">
      <circle cx="353.92" cy="95.21" r="90.45" fill="#fff"/>
      <path fill="#f8ab21" d="M673.05 0h57.82v179.07h-57.82z"/>
      <path fill="#e50075" d="m89.43 229.86-24.82-49.65H0l44.72 89.44 44.71 89.43 44.72-89.43 44.71-89.44h-64.6l-24.83 49.65z"/>
      <path fill="url(#d)" d="M353.92 185.66c-49.88 0-90.45-40.58-90.45-90.45 0-10.9 1.94-21.35 5.48-31.03-21.03 38.51-88.69 162.38-88.69 162.38-7.04 12.78-11.05 27.46-11.05 43.09 0 49.39 40.04 89.43 89.43 89.43 34.08 0 63.71-19.07 78.8-47.12 0 0 67.55-123.68 88.64-162.29-16.53 21.85-42.73 35.99-72.17 35.99Z"/>
      <path fill="#f8ab21" d="M528.45 0h-57.82v179.07h57.82V88.16l59.5 90.65v.26h57.83V0h-57.83v90.72L528.45 0zM791.73 89.63 850.39.19h-57.82l-58.66 89.44 58.66 89.43v.01h57.82l-58.66-89.44zM353.92 21.62c40.58 0 73.59 33.01 73.59 73.59s-33.01 73.59-73.59 73.59-73.59-33.01-73.59-73.59 33.01-73.59 73.59-73.59"/>
    </g>
  </g>
</svg>
